<svg width="1151" height="373" viewBox="0 0 1151 373" fill="none" xmlns="http://www.w3.org/2000/svg">
<circle cx="20" cy="333" r="18.5" stroke="white" stroke-width="3"/>
<circle cx="31" cy="353" r="19.5" stroke="white"/>
<path d="M1130 7C1130.97 7 1131.75 7.7835 1131.75 8.75V19.25H1142.25C1143.22 19.25 1144 20.0335 1144 21C1144 21.9665 1143.22 22.75 1142.25 22.75H1131.75V33.25C1131.75 34.2165 1130.97 35 1130 35C1129.03 35 1128.25 34.2165 1128.25 33.25V22.75H1117.75C1116.78 22.75 1116 21.9665 1116 21C1116 20.0335 1116.78 19.25 1117.75 19.25H1128.25V8.75C1128.25 7.7835 1129.03 7 1130 7Z" fill="#E7E7E7"/>
</svg>
